<svg xmlns="http://www.w3.org/2000/svg" width="342" height="75">
  <path d="M.001 64.1l9.2-13.3c2.266 2 4.966 3.734 8.1 5.2 3.133 1.467 6.166 2.2 9.1 2.2 2.333 0 4.15-.466 5.45-1.4 1.3-.933 1.95-2.133 1.95-3.6 0-1.533-.784-2.95-2.35-4.25-1.567-1.3-3.517-2.383-5.85-3.25-2.334-.866-4.867-1.983-7.6-3.35a73.98 73.98 0 0 1-7.6-4.35c-2.334-1.533-4.284-3.65-5.85-6.35-1.567-2.7-2.35-5.815-2.35-9.35 0-6.533 2.416-11.816 7.25-15.85C14.284 2.417 20.5.4 28.101.4c8.865 0 16.333 2.7 22.4 8.1l-7.4 14.3c-2.067-1.8-4.535-3.3-7.4-4.5-2.867-1.2-5.667-1.8-8.4-1.8-2.534 0-4.434.467-5.7 1.4-1.268.935-1.9 2.167-1.9 3.7 0 1.534.783 2.935 2.35 4.2 1.566 1.267 3.516 2.317 5.85 3.15 2.333.834 4.866 1.9 7.6 3.2 2.733 1.3 5.266 2.7 7.6 4.2 2.333 1.5 4.283 3.6 5.85 6.3 1.566 2.7 2.35 5.817 2.35 9.35 0 6.334-2.25 11.634-6.75 15.9-4.5 4.268-10.717 6.4-18.65 6.4-4.8 0-9.484-.867-14.05-2.6-4.568-1.733-8.518-4.266-11.85-7.6zm60.2 9V1.6h17.3v22.6l-.2 4.4h.2c1.465-2.533 3.6-4.533 6.4-6 2.8-1.466 5.9-2.2 9.3-2.2 12.333 0 18.5 6.435 18.5 19.3v33.4H94.4V42.9c0-4.533-1.9-6.8-5.7-6.8-3.6 0-6.367 1.267-8.3 3.8-1.935 2.535-2.9 5.867-2.9 10v23.2H60.201zm59-14.5c0-3.266.9-6.1 2.7-8.5 1.8-2.4 4.183-4.233 7.15-5.5a42.282 42.282 0 0 1 9.25-2.75c3.2-.565 6.533-.85 10-.85h1.5v-.9c0-3.8-2.434-5.7-7.3-5.7-4.534 0-9.267 1.635-14.2 4.9l-6-12.2c2.333-1.8 5.55-3.366 9.65-4.7 4.1-1.333 8.15-2 12.15-2 7.133 0 12.75 1.867 16.85 5.6 4.1 3.734 6.15 8.867 6.15 15.4v31.7h-15.8V70l.2-3.2h-.2c-1.667 2.334-3.884 4.167-6.65 5.5-2.767 1.333-5.65 2-8.65 2-4.935 0-8.967-1.5-12.1-4.5-3.136-3-4.701-6.733-4.7-11.2zm17.098-1.6c0 1.267.433 2.317 1.3 3.15.866.834 2.065 1.25 3.6 1.25 2.4 0 4.465-.965 6.2-2.9 1.733-1.933 2.6-4 2.6-6.2v-1.4h-1.6c-3.2 0-6.017.484-8.45 1.45-2.433.967-3.649 2.517-3.65 4.65zM178.1 73.1V21.6h16.6v8.7l-.2 3.2h.2c1.133-3.6 3.216-6.633 6.25-9.1 3.033-2.465 6.416-3.7 10.15-3.7.533 0 1.2.067 2 .2v17c-.6-.2-1.767-.3-3.5-.3-4.667 0-8.2 1.367-10.6 4.1-2.4 2.734-3.6 6.534-3.6 11.4v20h-17.3zm112.4 0V21.6h16.601v4.5l-.2 3.2h.2c3.532-5.933 9-8.9 16.399-8.9 12.333 0 18.5 6.435 18.5 19.3v33.4h-17.3V42.9c0-4.533-1.9-6.8-5.7-6.8-3.667 0-6.45 1.3-8.35 3.9-1.9 2.6-2.851 5.867-2.851 9.8v23.3H290.5z"/>
  <path d="M268.79 20.7c-7.516 0-11.596 4.51-14.817 8.16l-2.362 2.792-2.362-2.792c-3.221-3.651-7.301-8.16-14.817-8.16-8.375 0-15.032 6.657-15.032 15.032 0 10.952 6.872 18.253 32.211 38.868 25.339-20.615 32.211-27.916 32.211-38.868 0-8.375-6.657-15.032-15.032-15.032z" fill="#fa2a00"/>
</svg>
